HIERARCHY
ROOT PELVIS
{
    OFFSET 0 0 0
    CHANNELS 6 Xposition Yposition Zposition Xrotation Yrotation Zrotation
    JOINT SPINE_NAVAL
    {
        OFFSET -2.0534851999999972 15.5394837 -4.181665000000021
        CHANNELS 3 Xrotation Yrotation Zrotation
        JOINT SPINE_CHEST
        {
            OFFSET -0.1256637000000012 12.880011000000001 -1.5139648999999735
            CHANNELS 3 Xrotation Yrotation Zrotation
            JOINT NECK
            {
                OFFSET 0.6955734000000007 19.713171299999992 -0.8032470999999987
                CHANNELS 3 Xrotation Yrotation Zrotation
                JOINT HEAD
                {
                    OFFSET -1.3472442999999998 6.821453900000006 -2.612817300000006
                    CHANNELS 3 Xrotation Yrotation Zrotation
                    JOINT NOSE
                    {
                        OFFSET -10.2120224 6.3880370999999965 -8.271045000000004
                        CHANNELS 3 Xrotation Yrotation Zrotation
                    }
                    JOINT EYE_LEFT
                    {
                        OFFSET -5.676336600000002 8.508123799999998 -9.185913100000016
                        CHANNELS 3 Xrotation Yrotation Zrotation
                    }
                    JOINT EAR_LEFT
                    {
                        OFFSET 5.389044199999998 5.954736300000002 -7.205004899999994
                        CHANNELS 3 Xrotation Yrotation Zrotation
                    }
                    JOINT EYE_RIGHT
                    {
                        OFFSET -9.728736800000002 8.933819600000003 -4.3443360000000215
                        CHANNELS 3 Xrotation Yrotation Zrotation
                    }
                    JOINT EAR_RIGHT
                    {
                        OFFSET -5.135905400000001 7.024273700000004 6.481689400000005
                        CHANNELS 3 Xrotation Yrotation Zrotation
                    }
                }
            }
            JOINT CLAVICLE_LEFT
            {
                OFFSET 2.8376296999999995 16.523620599999997 -0.8934326000000056
                CHANNELS 3 Xrotation Yrotation Zrotation
                JOINT SHOULDER_LEFT
                {
                    OFFSET 10.252911399999999 -3.060675100000003 -7.381201199999987
                    CHANNELS 3 Xrotation Yrotation Zrotation
                    JOINT ELBOW_LEFT
                    {
                        OFFSET 3.705188000000004 -24.848709099999997 -0.4947998000000098
                        CHANNELS 3 Xrotation Yrotation Zrotation
                        JOINT WRIST_LEFT
                        {
                            OFFSET -1.6777131000000054 -20.755538899999998 -3.3462890000000245
                            CHANNELS 3 Xrotation Yrotation Zrotation
                            JOINT HAND_LEFT
                            {
                                OFFSET 2.300473100000005 -8.163669200000001 2.175024400000029
                                CHANNELS 3 Xrotation Yrotation Zrotation
                                JOINT HANDTIP_LEFT
                                {
                                    OFFSET -0.051223800000002484 -7.1441635 6.745263599999999
                                    CHANNELS 3 Xrotation Yrotation Zrotation
                                }
                            }
                            JOINT THUMB_LEFT
                            {
                                OFFSET -2.834121699999997 -11.9597349 4.810522400000036
                                CHANNELS 3 Xrotation Yrotation Zrotation
                            }
                        }
                    }
                }
            }
            JOINT CLAVICLE_RIGHT
            {
                OFFSET -1.0794707999999986 16.622052000000004 1.603588899999977
                CHANNELS 3 Xrotation Yrotation Zrotation
                JOINT SHOULDER_RIGHT
                {
                    OFFSET -10.558650200000002 -3.7694825000000036 4.160668900000019
                    CHANNELS 3 Xrotation Yrotation Zrotation
                    JOINT ELBOW_RIGHT
                    {
                        OFFSET -3.171775099999999 -24.1309143 7.949121100000002
                        CHANNELS 3 Xrotation Yrotation Zrotation
                        JOINT WRIST_RIGHT
                        {
                            OFFSET -3.3093597000000003 -20.921231799999997 -2.7364501999999904
                            CHANNELS 3 Xrotation Yrotation Zrotation
                            JOINT HAND_RIGHT
                            {
                                OFFSET -0.3383876999999991 -8.972045099999999 2.876147499999979
                                CHANNELS 3 Xrotation Yrotation Zrotation
                                JOINT HANDTIP_RIGHT
                                {
                                    OFFSET 7.4710163 -5.7339547 -2.140478499999972
                                    CHANNELS 3 Xrotation Yrotation Zrotation
                                }
                            }
                            JOINT THUMB_RIGHT
                            {
                                OFFSET 3.8033332 -12.8209585 -1.3018309999999929
                                CHANNELS 3 Xrotation Yrotation Zrotation
                            }
                        }
                    }
                }
            }
        }
    }
    JOINT PELVIS_LEFT
    {
        OFFSET 0.0 0.0 0.0
        CHANNELS 3 Xrotation Yrotation Zrotation
        JOINT HIP_LEFT
        {
            OFFSET 7.179837000000004 -0.16621849999999938 -4.143481400000018
            CHANNELS 3 Xrotation Yrotation Zrotation
            JOINT KNEE_LEFT
            {
                OFFSET 1.8186462000000005 -36.3250458 1.54128410000003
                CHANNELS 3 Xrotation Yrotation Zrotation
                JOINT ANKLE_LEFT
                {
                    OFFSET 5.139150999999998 -31.740254200000003 13.285449299999982
                    CHANNELS 3 Xrotation Yrotation Zrotation
                    JOINT FOOT_LEFT
                    {
                        OFFSET -1.627920499999999 -12.280194099999994 -11.693652399999973
                        CHANNELS 3 Xrotation Yrotation Zrotation
                    }
                }
            }
        }
    }
    JOINT PELVIS_RIGHT
    {
        OFFSET 0.0 0.0 0.0
        CHANNELS 3 Xrotation Yrotation Zrotation
        JOINT HIP_RIGHT
        {
            OFFSET -6.474380499999998 0.14957740000000114 3.736352500000021
            CHANNELS 3 Xrotation Yrotation Zrotation
            JOINT KNEE_RIGHT
            {
                OFFSET 2.1862212999999997 -35.5006073 7.567529299999978
                CHANNELS 3 Xrotation Yrotation Zrotation
                JOINT ANKLE_RIGHT
                {
                    OFFSET 6.129772899999997 -33.16903229999999 9.909472700000014
                    CHANNELS 3 Xrotation Yrotation Zrotation
                    JOINT FOOT_RIGHT
                    {
                        OFFSET -9.378500299999999 -10.563830600000006 -6.789648400000033
                        CHANNELS 3 Xrotation Yrotation Zrotation
                    }
                }
            }
        }
    }
}
MOTION
Frames: 5
Frame Time: 0.01
0 0 0 -19.815641205117288 3.858142241474348 14.318192352863152 -5.688111211581027 -0.11108904473508577 2.8414930213348777 -2.80378588402414 5.309948068260821 -4.164444453997881 -2.804050843993344 5.3100212666802555 -4.1643464942177815 -7.3480859237615785 -1.9836525488101853 0.5944537314708546 0.6281556349938076 1.8444853289027743 0.8444740538588925 -2.912035514208124 5.587954235216366 -9.13359104621477 7.366726757726781 5.517194119254731 4.995850240549903 12.861152491026415 -1.1418184278864645 -11.447075332018056 17.32353089448974 -11.103684786225848 -36.963135838502325 65.58111137881984 -44.62783912687458 -3.695537021369177 0 0 0 0 0 0 -0.7032534946207785 -2.407197503961727 -2.7723657327597766 15.856585989091673 2.273643592625415 1.0017941805343713 13.601222277210638 1.8346408452595577 -1.9094372454157502 40.07508496241272 8.55139928314556 -11.085232400555537 -39.94007437195489 -15.702681465097365 -40.778170006804665 0 0 0 0 0 0 45.0253964107224 10.094236111812581 -19.67431662891745 -20.120366133344987 5.230270473787923 17.687856651838928 11.746349207637294 5.2482504862700115 -6.248031554649367 0 0 0 48.55075305557256 6.838341002034613 -30.846926586672684 -27.697616843499244 8.590015329569606 23.93663024594498 13.769171270759468 -3.103979824694706 -11.286949751307208 0 0 0 7.874761743018832 -6.995674401297216 -7.10907196345064 0 0 0 0 0 0 0 0 0 0 0 0 0 0 0 
0 0 0 -19.493809258261162 3.715258954494689 14.00698674190395 -5.7394445689855615 -0.08788815946926072 2.869497955197798 -2.7642958635659287 5.3446271564149965 -4.128165929940566 -2.7645586958460906 5.344697498066093 -4.128065988998671 -7.205080283488954 -1.925473413510372 0.5335044732347459 0.6461166127689805 1.8336174942856165 0.8550342154362747 -2.585432985057511 5.959909390274333 -8.588781175459252 7.473568561382284 5.0831465202961255 4.31058294208206 12.233775822531845 -1.1297013815545751 -11.07619754434256 15.439096951461076 -11.575352657134921 -35.62434706507928 65.91964298640207 -43.278092501594784 -3.1739327728030617 0 0 0 0 0 0 -0.7509534917448093 -2.4673087064099 -2.8970721052042423 16.31581022806606 2.16408453117147 1.0374707945244845 12.357561309389599 1.6091430257388777 -1.3301614219722677 39.67191279756412 8.441087223865587 -10.85482719955521 -39.19162832569949 -16.5118202827723 -40.909001285041036 0 0 0 0 0 0 44.32948345638364 9.724765060938504 -19.121969615089156 -19.796673421587275 4.983070883241737 17.17196425887764 12.253666842822733 5.083355268239151 -6.186098133896152 0 0 0 47.781574406654094 6.533228304366645 -30.22993012430902 -27.287414287845255 8.390251128537983 23.59597797588656 14.309531032554201 -3.4784831114727357 -11.35602460081335 0 0 0 8.360141137817962 -6.914760620107716 -7.773947184297775 0 0 0 0 0 0 0 0 0 0 0 0 0 0 0 
0 0 0 -19.17305859270114 3.5749899302340293 13.696957349864185 -5.7903629990642616 -0.06462197974612857 2.8973749256783825 -2.7247274906853107 5.378164457365342 -4.0916183283118 -2.7249881239393026 5.37823202903923 -4.091516283078504 -7.062327357298132 -1.8683119795712748 0.4741752992738227 0.663647328638129 1.8225983073432015 0.8655722644391468 -2.2546127577781587 6.322923294032809 -8.049088739811028 7.56976397027096 4.670704713848654 3.623524517605017 11.624292603264989 -1.1136882790362934 -10.691340444303943 13.5519787562864 -12.004382585569903 -34.27186031850037 66.26450253001991 -41.902028953797455 -2.74453227683295 0 0 0 0 0 0 -0.7978424491023706 -2.5280827890007025 -3.0221056938662043 16.771421020997924 2.0493318249531653 1.0743947727363294 11.117533240939096 1.3984380918022032 -0.7564855040787961 39.27754251345449 8.327224815296727 -10.614313092686084 -38.41975351123132 -17.30134666036714 -41.05341874202779 0 0 0 0 0 0 43.634574462916234 9.363571260395002 -18.569607776100572 -19.473569001439227 4.739298373910037 16.657339877204276 12.757133360978337 4.920302510617479 -6.129262329969734 0 0 0 47.014411004719726 6.235908796077834 -29.613308275672992 -26.883546129676112 8.190282781450945 23.251333724108772 14.846345368377106 -3.8526910987100225 -11.42816127908975 0 0 0 8.841639926201214 -6.824579813837772 -8.434911742831206 0 0 0 0 0 0 0 0 0 0 0 0 0 0 0 
0 0 0 -18.8534378808552 3.4373239030731875 13.388148386019393 -5.840852573401628 -0.04129994781371117 2.925113546814928 -2.68510162484659 5.410564150737107 -4.054824685492967 -2.6853599881096843 5.410629033889676 -4.054720413494576 -6.919892430524298 -1.8121785888799673 0.4164598460201935 0.6807548233015969 1.8114453630771135 0.8760873217234696 -1.9198896500588838 6.677094001535841 -7.514623732712526 7.655237161134858 4.279806943678243 2.93575146942938 11.033073609619793 -1.0940137702861454 -10.293732740227407 11.666554256902197 -12.390439397355854 -32.9100556548318 66.61008040128331 -40.50836185603618 -2.405197500845068 0 0 0 0 0 0 -0.8439415596629702 -2.589474709724885 -3.147447952774214 17.223008990544255 1.929509818152464 1.112530591679463 9.8819108620862 1.2021337477511163 -0.18886718242127498 38.89223291619864 8.210284615471021 -10.36316337431417 -37.62508650677069 -18.07022955614343 -41.21105693428545 0 0 0 0 0 0 42.94081602991549 9.010644766514925 -18.01737130956605 -19.151030940799448 4.499006622143098 16.1441045702909 13.256645788993042 4.759262115099635 -6.077369944687052 0 0 0 46.24942805795258 5.94641084231612 -28.997220753375867 -26.485886294961322 7.99026359095549 22.902952315660162 15.379570865937072 -4.226355769607728 -11.503450129256157 0 0 0 9.318315604685726 -6.725483404212766 -9.090757027248129 0 0 0 0 0 0 0 0 0 0 0 0 0 0 0 
0 0 0 -18.53499448363129 3.3022482362991896 13.08060281404997 -5.89090004751563 -0.017931364852125205 2.952703832016966 -2.6454386607521387 5.441831207102562 -4.017807660082982 -2.645694683512515 5.4418934779732195 -4.017701039602995 -6.777838909823249 -1.7570823510171656 0.36035026475114545 0.697446545493188 1.8001754616303194 0.8865787272280924 -1.5815747297680471 7.022528721385212 -6.985490696258665 7.729919536180154 3.9103257540727974 2.2483186342332115 10.460433932542196 -1.070936083814329 -9.884603168594552 9.787141815323762 -12.733637389790514 -31.543301366060568 66.95106761638118 -39.105728491848275 -2.1530358802524967 0 0 0 0 0 0 -0.8892704409528465 -2.6514400336190174 -3.2730795894556564 17.670180749730978 1.8047480771954572 1.1518420881609055 8.651442723904426 1.0198166946927056 0.3722595143014861 38.51618756940729 8.09076828876644 -10.100896326758651 -36.80839869225909 -18.817489229012768 -41.38143369082534 0 0 0 0 0 0 42.24835338450345 8.665969761964197 -17.465399425736738 -18.829038150631543 4.262246408557569 15.632377965455259 13.752105556706491 4.600394033137295 -6.030262399700524 0 0 0 45.486789053761264 5.664754282442999 -28.381826785813985 -26.09430658160023 7.790341088223255 22.55108639286315 15.909166776818447 -4.599229262050886 -11.581965049419706 0 0 0 9.789275953158382 -6.617867996857269 -9.74033183688383 0 0 0 0 0 0 0 0 0 0 0 0 0 0 0 
